<svg width="64" height="67" viewBox="0 0 64 67" fill="none" xmlns="http://www.w3.org/2000/svg">
<g clip-path="url(#clip0_5_89)">
<path d="M11.9457 0.148656H52.0484C53.4928 0.147161 54.9232 0.458484 56.2579 1.06481C57.5926 1.67113 58.8053 2.56055 59.8267 3.68216C60.848 4.80378 61.6579 6.13557 62.21 7.60132C62.7621 9.06706 63.0456 10.638 63.0443 12.2242V54.5596C63.0456 56.1458 62.7621 57.7167 62.21 59.1825C61.6579 60.6482 60.848 61.98 59.8267 63.1016C58.8053 64.2232 57.5926 65.1127 56.2579 65.719C54.9232 66.3253 53.4928 66.6366 52.0484 66.6351H11.9457C10.5013 66.6366 9.07086 66.3253 7.73617 65.719C6.40147 65.1127 5.18875 64.2232 4.16742 63.1016C3.14609 61.98 2.33619 60.6482 1.78407 59.1825C1.23196 57.7167 0.948473 56.1458 0.949834 54.5596V12.2242C0.948473 10.638 1.23196 9.06706 1.78407 7.60132C2.33619 6.13557 3.14609 4.80378 4.16742 3.68216C5.18875 2.56055 6.40147 1.67113 7.73617 1.06481C9.07086 0.458484 10.5013 0.147161 11.9457 0.148656V0.148656Z" fill="#2965F1"/>
<path d="M16.149 27.5569L16.76 34.8572H32.0174V27.5569H16.149ZM14.921 12.7811L15.5408 20.0813H32.0174V12.7811H14.921V12.7811ZM32.0174 46.5165L31.9875 46.525L24.3943 44.3297L23.9089 38.5074H17.0646L18.0197 49.97L31.986 54.121L32.0174 54.1119V46.5165Z" fill="#EBEBEB"/>
<path d="M47.8422 27.5569L49.0729 12.7811H31.9939V20.0813H41.601L40.9806 27.5569H31.9939V34.8572H40.3895L39.5979 44.3251L31.9937 46.5227V54.1176L45.971 49.97L46.0735 48.7365L47.6759 29.5173L47.8422 27.5569V27.5569Z" fill="white"/>
</g>
<defs>
<clipPath id="clip0_5_89">
<rect width="62.0944" height="66.4865" fill="white" transform="translate(0.949829 0.148651)"/>
</clipPath>
</defs>
</svg>
