<svg width="63" height="67" viewBox="0 0 63 67" fill="none" xmlns="http://www.w3.org/2000/svg">
<g clip-path="url(#clip0_5_100)">
<path d="M11.5105 0.513509H51.6131C53.0575 0.512014 54.488 0.823337 55.8227 1.42966C57.1574 2.03598 58.3701 2.9254 59.3914 4.04702C60.4128 5.16863 61.2227 6.50042 61.7748 7.96617C62.3269 9.43192 62.6104 11.0028 62.609 12.589V54.9245C62.6104 56.5107 62.3269 58.0816 61.7748 59.5473C61.2227 61.0131 60.4128 62.3449 59.3914 63.4665C58.3701 64.5881 57.1574 65.4775 55.8227 66.0838C54.488 66.6902 53.0575 67.0015 51.6131 67H11.5105C10.0661 67.0015 8.63562 66.6902 7.30093 66.0838C5.96623 65.4775 4.75351 64.5881 3.73218 63.4665C2.71084 62.3449 1.90094 61.0131 1.34883 59.5473C0.796719 58.0816 0.513231 56.5107 0.514592 54.9245V12.589C0.513231 11.0028 0.796719 9.43192 1.34883 7.96617C1.90094 6.50042 2.71084 5.16863 3.73218 4.04702C4.75351 2.9254 5.96623 2.03598 7.30093 1.42966C8.63562 0.823337 10.0661 0.512014 11.5105 0.513509V0.513509Z" fill="#000B1D"/>
<path d="M25.6112 54.0352C29.1834 54.0352 32.0793 50.9344 32.0793 47.1095V40.1838H25.6112C22.0389 40.1838 19.143 43.2845 19.143 47.1095C19.143 50.9344 22.0389 54.0352 25.6112 54.0352Z" fill="#0ACF83"/>
<path d="M19.143 33.2581C19.143 29.4332 22.0389 26.3324 25.6112 26.3324H32.0793V40.1838H25.6112C22.0389 40.1838 19.143 37.0831 19.143 33.2581Z" fill="#A259FF"/>
<path d="M19.143 19.4068C19.143 15.5818 22.0389 12.4811 25.6112 12.4811H32.0793V26.3324H25.6112C22.0389 26.3324 19.143 23.2317 19.143 19.4068Z" fill="#F24E1E"/>
<path d="M32.0793 12.4811H38.5475C42.1198 12.4811 45.0157 15.5818 45.0157 19.4068C45.0157 23.2317 42.1198 26.3324 38.5475 26.3324H32.0793V12.4811Z" fill="#FF7262"/>
<path d="M45.0157 33.2581C45.0157 37.0831 42.1198 40.1838 38.5475 40.1838C34.9752 40.1838 32.0793 37.0831 32.0793 33.2581C32.0793 29.4332 34.9752 26.3324 38.5475 26.3324C42.1198 26.3324 45.0157 29.4332 45.0157 33.2581Z" fill="#1ABCFE"/>
</g>
<defs>
<clipPath id="clip0_5_100">
<rect width="62.0944" height="66.4865" fill="white" transform="translate(0.514587 0.513519)"/>
</clipPath>
</defs>
</svg>
