<svg width="63" height="67" viewBox="0 0 63 67" fill="none" xmlns="http://www.w3.org/2000/svg">
<g clip-path="url(#clip0_5_84)">
<path d="M11.7282 0.148656H51.8308C53.2752 0.147161 54.7057 0.458484 56.0404 1.06481C57.3751 1.67113 58.5878 2.56055 59.6091 3.68216C60.6305 4.80378 61.4404 6.13557 61.9925 7.60132C62.5446 9.06706 62.8281 10.638 62.8267 12.2242V54.5596C62.8281 56.1458 62.5446 57.7167 61.9925 59.1825C61.4404 60.6482 60.6305 61.98 59.6091 63.1016C58.5878 64.2232 57.3751 65.1127 56.0404 65.719C54.7057 66.3253 53.2752 66.6366 51.8308 66.6351H11.7282C10.2838 66.6366 8.85333 66.3253 7.51864 65.719C6.18394 65.1127 4.97122 64.2232 3.94989 63.1016C2.92856 61.98 2.11866 60.6482 1.56654 59.1825C1.01443 57.7167 0.730943 56.1458 0.732305 54.5596V12.2242C0.730943 10.638 1.01443 9.06706 1.56654 7.60132C2.11866 6.13557 2.92856 4.80378 3.94989 3.68216C4.97122 2.56055 6.18394 1.67113 7.51864 1.06481C8.85333 0.458484 10.2838 0.147161 11.7282 0.148656V0.148656Z" fill="#F16529"/>
<path d="M22.1547 20.0814H31.7999V12.7811H14.7035L14.8666 14.7396L16.5424 34.8572H31.7999V27.5569H22.7778L22.1547 20.0814V20.0814ZM23.6913 38.5074H16.8471L17.8022 49.97L31.7685 54.121L31.7999 54.1119V46.5165L31.77 46.525L24.1768 44.3297L23.6913 38.5074V38.5074Z" fill="#EBEBEB"/>
<path d="M31.7763 34.8572H40.172L39.3804 44.3251L31.7761 46.5227V54.1176L45.7535 49.97L45.856 48.7365L47.4584 29.5173L47.6247 27.5569H31.7763V34.8572ZM31.7763 20.0635V20.0814H48.2451L48.3817 18.4406L48.6925 14.7396L48.8554 12.7811H31.7763V20.0638V20.0635Z" fill="white"/>
</g>
<defs>
<clipPath id="clip0_5_84">
<rect width="62.0944" height="66.4865" fill="white" transform="translate(0.7323 0.148651)"/>
</clipPath>
</defs>
</svg>
