<svg width="63" height="67" viewBox="0 0 63 67" fill="none" xmlns="http://www.w3.org/2000/svg">
<g clip-path="url(#clip0_5_81)">
<path d="M11.5105 0.148656H51.6131C53.0575 0.147161 54.488 0.458484 55.8227 1.06481C57.1574 1.67113 58.3701 2.56055 59.3914 3.68216C60.4128 4.80378 61.2227 6.13557 61.7748 7.60132C62.3269 9.06706 62.6104 10.638 62.609 12.2242V54.5596C62.6104 56.1458 62.3269 57.7167 61.7748 59.1825C61.2227 60.6482 60.4128 61.98 59.3914 63.1016C58.3701 64.2232 57.1574 65.1127 55.8227 65.719C54.488 66.3253 53.0575 66.6366 51.6131 66.6351H11.5105C10.0661 66.6366 8.63562 66.3253 7.30093 65.719C5.96623 65.1127 4.75351 64.2232 3.73218 63.1016C2.71084 61.98 1.90094 60.6482 1.34883 59.1825C0.796719 57.7167 0.513231 56.1458 0.514592 54.5596V12.2242C0.513231 10.638 0.796719 9.06706 1.34883 7.60132C1.90094 6.13557 2.71084 4.80378 3.73218 3.68216C4.75351 2.56055 5.96623 1.67113 7.30093 1.06481C8.63562 0.458484 10.0661 0.147161 11.5105 0.148656V0.148656Z" fill="#F7DF1E"/>
<path d="M42.3317 52.1717C43.5825 54.3584 45.2098 55.9656 48.0878 55.9656C50.5055 55.9656 52.05 54.6718 52.05 52.884C52.05 50.7417 50.4631 49.9829 47.802 48.7366L46.3432 48.0664C42.1326 46.1457 39.3354 43.7395 39.3354 38.6528C39.3354 33.9671 42.6698 30.4 47.8808 30.4C51.5907 30.4 54.2578 31.7825 56.1798 35.4023L51.636 38.5261C50.6356 36.6054 49.5564 35.8487 47.8808 35.8487C46.1717 35.8487 45.0885 37.0096 45.0885 38.5261C45.0885 40.4004 46.1727 41.1592 48.6762 42.3201L50.1349 42.9892C55.0926 45.2655 57.8918 47.5862 57.8918 52.8038C57.8918 58.4288 53.765 61.5104 48.2228 61.5104C42.8038 61.5104 39.3029 58.7454 37.5899 55.1214L42.3317 52.1717ZM21.7193 52.7131C22.636 54.4544 23.4698 55.9266 25.4746 55.9266C27.3916 55.9266 28.601 55.1235 28.601 52.0007V30.7567H34.4359V52.0852C34.4359 58.5544 30.8935 61.4988 25.7229 61.4988C21.0511 61.4988 18.3455 58.91 16.9696 55.792L21.7193 52.7131Z" fill="black"/>
</g>
<defs>
<clipPath id="clip0_5_81">
<rect width="62.0944" height="66.4865" fill="white" transform="translate(0.514587 0.148651)"/>
</clipPath>
</defs>
</svg>
