<svg width="64" height="67" viewBox="0 0 64 67" fill="none" xmlns="http://www.w3.org/2000/svg">
<path d="M11.9457 0.513525H52.0484C53.4927 0.51203 54.9232 0.823352 56.2579 1.42968C57.5926 2.036 58.8053 2.92542 59.8267 4.04703C60.848 5.16865 61.6579 6.50044 62.21 7.96618C62.7621 9.43193 63.0456 11.0029 63.0443 12.5891V54.9245C63.0456 56.5107 62.7621 58.0816 62.21 59.5473C61.6579 61.0131 60.848 62.3449 59.8267 63.4665C58.8053 64.5881 57.5926 65.4775 56.2579 66.0839C54.9232 66.6902 53.4927 67.0015 52.0484 67H11.9457C10.5013 67.0015 9.07086 66.6902 7.73617 66.0839C6.40147 65.4775 5.18875 64.5881 4.16742 63.4665C3.14608 62.3449 2.33619 61.0131 1.78407 59.5473C1.23196 58.0816 0.948473 56.5107 0.949834 54.9245V12.5891C0.948473 11.0029 1.23196 9.43193 1.78407 7.96618C2.33619 6.50044 3.14608 5.16865 4.16742 4.04703C5.18875 2.92542 6.40147 2.036 7.73617 1.42968C9.07086 0.823352 10.5013 0.51203 11.9457 0.513525V0.513525Z" fill="#F0F0F0"/>
<g style="mix-blend-mode:multiply" opacity="0.2">
<path d="M22.7457 47.7085C22.2058 47.7147 21.6827 47.9103 21.2565 48.2653C20.8304 48.6204 20.5247 49.1152 20.3864 49.6741C20.2481 50.2329 20.2848 50.8249 20.4908 51.3593C20.6968 51.8937 21.0608 52.341 21.527 52.6327L30.2342 57.9179C30.9514 58.3545 31.7623 58.5836 32.5873 58.5827C33.0311 58.5824 33.4726 58.5133 33.898 58.3775L46.9971 54.3808C47.9741 54.0802 48.8336 53.4479 49.446 52.579C50.0584 51.7102 50.3906 50.6518 50.3926 49.5633V47.7085H22.7457Z" fill="white"/>
</g>
<g style="mix-blend-mode:multiply" opacity="0.12">
<path d="M22.7457 47.7085C22.2058 47.7147 21.6827 47.9103 21.2565 48.2653C20.8304 48.6204 20.5247 49.1152 20.3864 49.6741C20.2481 50.2329 20.2848 50.8249 20.4908 51.3593C20.6968 51.8937 21.0608 52.341 21.527 52.6327L30.2342 57.9179C30.9514 58.3545 31.7623 58.5836 32.5873 58.5827C33.0311 58.5824 33.4726 58.5133 33.898 58.3775L46.9971 54.3808C47.9741 54.0802 48.8336 53.4479 49.446 52.579C50.0584 51.7102 50.3906 50.6518 50.3926 49.5633V47.7085H22.7457Z" fill="white"/>
</g>
<path d="M33.8444 9.13599L37.3625 17.7533V47.7085L33.898 58.3775L46.9971 54.3808C47.9742 54.0802 48.8336 53.4479 49.446 52.579C50.0584 51.7102 50.3906 50.6518 50.3926 49.5633V17.9502C50.3931 16.8589 50.061 15.7972 49.4468 14.9263C48.8326 14.0554 47.9699 13.4228 46.9895 13.1246L33.8444 9.13599Z" fill="url(#paint0_linear_5_140)"/>
<path d="M17.2347 47.3885L21.0671 45.1726C21.5927 44.8633 22.0308 44.4083 22.3356 43.8552C22.6404 43.3022 22.8006 42.6715 22.7993 42.0293V25.9027C22.8 25.1682 23.0114 24.4515 23.4048 23.8497C23.7982 23.248 24.3547 22.79 24.9991 22.5379L37.3624 17.7533V14.1176C37.361 12.9907 37.0168 11.8951 36.3821 10.9963C35.7473 10.0975 34.8565 9.44444 33.8443 9.13599C33.4132 9.00345 32.9667 8.93713 32.5182 8.93902V8.93902C31.6747 8.94109 30.8458 9.17567 30.1115 9.62019L15.9623 18.2621C15.2453 18.6995 14.6492 19.3324 14.2346 20.0963C13.82 20.8603 13.6016 21.7282 13.6016 22.6118V45.0659C13.6005 45.5229 13.7105 45.9724 13.9207 46.3701C14.1309 46.7679 14.4342 47.1002 14.8007 47.3345C15.1672 47.5688 15.5843 47.6969 16.011 47.7064C16.4377 47.7159 16.8594 47.6063 17.2347 47.3885V47.3885Z" fill="url(#paint1_linear_5_140)"/>
<path d="M37.3624 47.7085H22.7457C22.2058 47.7147 21.6827 47.9103 21.2565 48.2653C20.8304 48.6204 20.5247 49.1152 20.3864 49.6741C20.2481 50.2329 20.2848 50.8249 20.4908 51.3593C20.6968 51.8937 21.0608 52.341 21.527 52.6327L30.2342 57.9179C30.9514 58.3545 31.7623 58.5836 32.5873 58.5827V58.5827C33.0311 58.5824 33.4726 58.5133 33.898 58.3775C34.8978 58.0734 35.7774 57.4276 36.4029 56.5387C37.0283 55.6498 37.3652 54.5663 37.3624 53.4534V47.7085Z" fill="url(#paint2_linear_5_140)"/>
<path d="M17.2347 47.3885L21.0671 45.1726C21.5927 44.8633 22.0308 44.4083 22.3356 43.8552C22.6404 43.3022 22.8006 42.6715 22.7993 42.0293V25.9027C22.8 25.1682 23.0114 24.4515 23.4048 23.8497C23.7982 23.248 24.3547 22.79 24.9991 22.5379L37.3624 17.7533V14.1176C37.361 12.9907 37.0168 11.8951 36.3821 10.9963C35.7473 10.0975 34.8565 9.44444 33.8443 9.13599C33.4132 9.00345 32.9667 8.93713 32.5182 8.93902V8.93902C31.6747 8.94109 30.8458 9.17567 30.1115 9.62019L15.9623 18.2621C15.2453 18.6995 14.6492 19.3324 14.2346 20.0963C13.82 20.8603 13.6016 21.7282 13.6016 22.6118V45.0659C13.6005 45.5229 13.7105 45.9724 13.9207 46.3701C14.1309 46.7679 14.4342 47.1002 14.8007 47.3345C15.1672 47.5688 15.5843 47.6969 16.011 47.7064C16.4377 47.7159 16.8594 47.6063 17.2347 47.3885V47.3885Z" fill="url(#paint3_linear_5_140)"/>
<path d="M37.3624 47.7085H22.7457C22.2058 47.7147 21.6827 47.9103 21.2565 48.2653C20.8304 48.6204 20.5247 49.1152 20.3864 49.6741C20.2481 50.2329 20.2848 50.8249 20.4908 51.3593C20.6968 51.8937 21.0608 52.341 21.527 52.6327L30.2342 57.9179C30.9514 58.3545 31.7623 58.5836 32.5873 58.5827V58.5827C33.0311 58.5824 33.4726 58.5133 33.898 58.3775C34.8978 58.0734 35.7774 57.4276 36.4029 56.5387C37.0283 55.6498 37.3652 54.5663 37.3624 53.4534V47.7085Z" fill="url(#paint4_linear_5_140)"/>
<defs>
<linearGradient id="paint0_linear_5_140" x1="42.1147" y1="6.32922" x2="42.1147" y2="54.9306" gradientUnits="userSpaceOnUse">
<stop stop-color="#FFB900"/>
<stop offset="0.17" stop-color="#EF8400"/>
<stop offset="0.31" stop-color="#E25C01"/>
<stop offset="0.43" stop-color="#DB4401"/>
<stop offset="0.5" stop-color="#D83B01"/>
</linearGradient>
<linearGradient id="paint1_linear_5_140" x1="33.9286" y1="8.04447" x2="7.63831" y2="43.1053" gradientUnits="userSpaceOnUse">
<stop stop-color="#800600"/>
<stop offset="0.6" stop-color="#C72127"/>
<stop offset="0.73" stop-color="#C13959"/>
<stop offset="0.85" stop-color="#BC4B81"/>
<stop offset="0.94" stop-color="#B95799"/>
<stop offset="1" stop-color="#B85BA2"/>
</linearGradient>
<linearGradient id="paint2_linear_5_140" x1="21.6496" y1="53.1497" x2="53.0293" y2="53.1497" gradientUnits="userSpaceOnUse">
<stop stop-color="#F32B44"/>
<stop offset="0.6" stop-color="#A4070A"/>
</linearGradient>
<linearGradient id="paint3_linear_5_140" x1="34.4191" y1="7.29763" x2="28.8526" y2="14.72" gradientUnits="userSpaceOnUse">
<stop stop-opacity="0.4"/>
<stop offset="1" stop-opacity="0"/>
</linearGradient>
<linearGradient id="paint4_linear_5_140" x1="42.9731" y1="53.9048" x2="28.9099" y2="52.7583" gradientUnits="userSpaceOnUse">
<stop stop-opacity="0.4"/>
<stop offset="1" stop-opacity="0"/>
</linearGradient>
</defs>
</svg>
