<svg width="63" height="67" viewBox="0 0 63 67" fill="none" xmlns="http://www.w3.org/2000/svg">
<g clip-path="url(#clip0_5_95)">
<path d="M11.1633 0.148656H51.2659C52.7103 0.147161 54.1408 0.458484 55.4755 1.06481C56.8101 1.67113 58.0229 2.56055 59.0442 3.68216C60.0655 4.80378 60.8754 6.13557 61.4276 7.60132C61.9797 9.06706 62.2632 10.638 62.2618 12.2242V54.5596C62.2632 56.1458 61.9797 57.7167 61.4276 59.1825C60.8754 60.6482 60.0655 61.98 59.0442 63.1016C58.0229 64.2232 56.8101 65.1127 55.4755 65.719C54.1408 66.3253 52.7103 66.6366 51.2659 66.6351H11.1633C9.71887 66.6366 8.28839 66.3253 6.9537 65.719C5.619 65.1127 4.40628 64.2232 3.38495 63.1016C2.36361 61.98 1.55372 60.6482 1.0016 59.1825C0.44949 57.7167 0.166002 56.1458 0.167363 54.5596V12.2242C0.166002 10.638 0.44949 9.06706 1.0016 7.60132C1.55372 6.13557 2.36361 4.80378 3.38495 3.68216C4.40628 2.56055 5.619 1.67113 6.9537 1.06481C8.28839 0.458484 9.71887 0.147161 11.1633 0.148656V0.148656Z" fill="#000B1D"/>
<path d="M31.1271 11.1189C20.364 11.1189 21.0361 16.1166 21.0361 16.1166L21.0481 21.2941H31.319V22.8486H16.9686C16.9686 22.8486 10.0813 22.0123 10.0813 33.6404C10.0813 45.2686 16.0927 44.8562 16.0927 44.8562H19.6803V39.4603C19.6803 39.4603 19.4869 33.0238 25.5957 33.0238C31.7044 33.0238 35.7826 33.0238 35.7826 33.0238C35.7826 33.0238 41.506 33.1228 41.506 27.1011C41.506 21.0794 41.506 17.1444 41.506 17.1444C41.506 17.1444 42.3749 11.1189 31.1271 11.1189ZM25.4637 14.6006C26.4855 14.6006 27.3115 15.4849 27.3115 16.5791C27.3115 17.6732 26.4855 18.5576 25.4637 18.5576C24.4418 18.5576 23.6159 17.6732 23.6159 16.5791C23.6159 15.4849 24.4418 14.6006 25.4637 14.6006Z" fill="url(#paint0_linear_5_95)"/>
<path d="M31.4328 56.2786C42.1958 56.2786 41.5237 51.281 41.5237 51.281L41.5117 46.1035H31.2408V44.5489H45.5913C45.5913 44.5489 52.4786 45.3852 52.4786 33.7571C52.4786 22.1289 46.4672 22.5413 46.4672 22.5413H42.8796V27.9372C42.8796 27.9372 43.073 34.3738 36.9642 34.3738C30.8555 34.3738 26.7773 34.3738 26.7773 34.3738C26.7773 34.3738 21.0539 34.2747 21.0539 40.2964C21.0539 46.3181 21.0539 50.2532 21.0539 50.2532C21.0539 50.2532 20.1849 56.2786 31.4328 56.2786ZM37.0962 52.797C36.0743 52.797 35.2484 51.9126 35.2484 50.8185C35.2484 49.7243 36.0743 48.84 37.0962 48.84C38.1181 48.84 38.944 49.7243 38.944 50.8185C38.944 51.9126 38.1181 52.797 37.0962 52.797Z" fill="url(#paint1_linear_5_95)"/>
</g>
<defs>
<linearGradient id="paint0_linear_5_95" x1="14.1558" y1="15.0663" x2="36.5556" y2="36.0563" gradientUnits="userSpaceOnUse">
<stop stop-color="#387EB8"/>
<stop offset="1" stop-color="#366994"/>
</linearGradient>
<linearGradient id="paint1_linear_5_95" x1="27.0521" y1="29.3939" x2="51.034" y2="50.852" gradientUnits="userSpaceOnUse">
<stop stop-color="#FFE052"/>
<stop offset="1" stop-color="#FFC331"/>
</linearGradient>
<clipPath id="clip0_5_95">
<rect width="62.0944" height="66.4865" fill="white" transform="translate(0.167358 0.148651)"/>
</clipPath>
</defs>
</svg>
