<svg width="63" height="67" viewBox="0 0 63 67" fill="none" xmlns="http://www.w3.org/2000/svg">
<path d="M11.7282 0.513525H51.8308C53.2752 0.51203 54.7057 0.823352 56.0404 1.42968C57.3751 2.036 58.5878 2.92542 59.6091 4.04703C60.6305 5.16865 61.4404 6.50044 61.9925 7.96618C62.5446 9.43193 62.8281 11.0029 62.8267 12.5891V54.9245C62.8281 56.5107 62.5446 58.0816 61.9925 59.5473C61.4404 61.0131 60.6305 62.3449 59.6091 63.4665C58.5878 64.5881 57.3751 65.4775 56.0404 66.0839C54.7057 66.6902 53.2752 67.0015 51.8308 67H11.7282C10.2838 67.0015 8.85333 66.6902 7.51864 66.0839C6.18394 65.4775 4.97122 64.5881 3.94989 63.4665C2.92856 62.3449 2.11866 61.0131 1.56654 59.5473C1.01443 58.0816 0.730943 56.5107 0.732305 54.9245V12.5891C0.730943 11.0029 1.01443 9.43193 1.56654 7.96618C2.11866 6.50044 2.92856 5.16865 3.94989 4.04703C4.97122 2.92542 6.18394 2.036 7.51864 1.42968C8.85333 0.823352 10.2838 0.51203 11.7282 0.513525V0.513525Z" fill="#000B1D"/>
<path d="M51.7891 15.6784L42.9154 11.1036C41.8882 10.5741 40.6607 10.7975 39.8546 11.6606L10.8052 40.0203C10.0238 40.783 10.0247 42.1002 10.8071 42.8618L13.18 45.1715C13.8196 45.7941 14.7829 45.84 15.4716 45.2806L50.4538 16.8652C51.6275 15.9119 53.3131 16.8082 53.3131 18.3855V18.2752C53.3131 17.168 52.7208 16.1587 51.7891 15.6784Z" fill="#0065A9"/>
<g filter="url(#filter0_d_5_129)">
<path d="M51.7891 51.835L42.9154 56.4097C41.8882 56.9394 40.6607 56.7159 39.8546 55.8528L10.8052 27.4931C10.0238 26.7303 10.0247 25.4131 10.8071 24.6516L13.18 22.3418C13.8196 21.7192 14.7829 21.6734 15.4716 22.2328L50.4538 50.6481C51.6275 51.6014 53.3131 50.7052 53.3131 49.1279V49.2382C53.3131 50.3454 52.7208 51.3546 51.7891 51.835Z" fill="#007ACC"/>
</g>
<g filter="url(#filter1_d_5_129)">
<path d="M42.9157 56.4106C41.8883 56.9399 40.6608 56.716 39.8546 55.8528C40.8479 56.9163 42.5463 56.1631 42.5463 54.659V12.8545C42.5463 11.3504 40.8479 10.5972 39.8546 11.6607C40.6608 10.7976 41.8883 10.5739 42.9157 11.1029L51.788 15.6714C52.7203 16.1515 53.3131 17.1611 53.3131 18.2688V49.245C53.3131 50.3526 52.7203 51.3623 51.7879 51.8423L42.9157 56.4106Z" fill="#1F9CF0"/>
</g>
<g style="mix-blend-mode:overlay" opacity="0.25">
<path style="mix-blend-mode:overlay" fill-rule="evenodd" clip-rule="evenodd" d="M40.7595 56.4986C41.4378 56.7815 42.2113 56.7634 42.8959 56.4107L51.7627 51.8424C52.6944 51.3623 53.2869 50.3527 53.2869 49.245V18.2688C53.2869 17.1611 52.6945 16.1515 51.7627 15.6715L42.8959 11.103C41.9974 10.6401 40.9458 10.7535 40.1572 11.3673C40.0446 11.455 39.9373 11.5529 39.8366 11.6608L22.8621 28.2423L15.4684 22.2329C14.7801 21.6734 13.8174 21.7193 13.1782 22.3419L10.8067 24.6516C10.0248 25.4132 10.0239 26.7304 10.8048 27.4932L17.2169 33.7568L10.8048 40.0205C10.0239 40.7833 10.0248 42.1004 10.8067 42.862L13.1782 45.1717C13.8174 45.7944 14.7801 45.8402 15.4684 45.2808L22.8621 39.2713L39.8366 55.8529C40.1051 56.1405 40.4204 56.3572 40.7595 56.4986ZM42.5267 23.2886L29.647 33.7568L42.5267 44.2251V23.2886Z" fill="url(#paint0_linear_5_129)"/>
</g>
<defs>
<filter id="filter0_d_5_129" x="1.88639" y="13.5088" width="59.7601" height="51.5188" filterUnits="userSpaceOnUse" color-interpolation-filters="sRGB">
<feFlood flood-opacity="0" result="BackgroundImageFix"/>
<feColorMatrix in="SourceAlpha" type="matrix" values="0 0 0 0 0 0 0 0 0 0 0 0 0 0 0 0 0 0 127 0" result="hardAlpha"/>
<feOffset/>
<feGaussianBlur stdDeviation="4.16667"/>
<feColorMatrix type="matrix" values="0 0 0 0 0 0 0 0 0 0 0 0 0 0 0 0 0 0 0.25 0"/>
<feBlend mode="overlay" in2="BackgroundImageFix" result="effect1_dropShadow_5_129"/>
<feBlend mode="normal" in="SourceGraphic" in2="effect1_dropShadow_5_129" result="shape"/>
</filter>
<filter id="filter1_d_5_129" x="31.5213" y="2.48558" width="30.1252" height="62.5425" filterUnits="userSpaceOnUse" color-interpolation-filters="sRGB">
<feFlood flood-opacity="0" result="BackgroundImageFix"/>
<feColorMatrix in="SourceAlpha" type="matrix" values="0 0 0 0 0 0 0 0 0 0 0 0 0 0 0 0 0 0 127 0" result="hardAlpha"/>
<feOffset/>
<feGaussianBlur stdDeviation="4.16667"/>
<feColorMatrix type="matrix" values="0 0 0 0 0 0 0 0 0 0 0 0 0 0 0 0 0 0 0.25 0"/>
<feBlend mode="overlay" in2="BackgroundImageFix" result="effect1_dropShadow_5_129"/>
<feBlend mode="normal" in="SourceGraphic" in2="effect1_dropShadow_5_129" result="shape"/>
</filter>
<linearGradient id="paint0_linear_5_129" x1="31.7533" y1="10.819" x2="31.7533" y2="56.6947" gradientUnits="userSpaceOnUse">
<stop stop-color="white"/>
<stop offset="1" stop-color="white" stop-opacity="0"/>
</linearGradient>
</defs>
</svg>
