<svg width="63" height="67" viewBox="0 0 63 67" fill="none" xmlns="http://www.w3.org/2000/svg">
<g clip-path="url(#clip0_5_153)">
<path d="M11.1633 0.513509H51.2659C52.7103 0.512014 54.1408 0.823337 55.4755 1.42966C56.8102 2.03598 58.0229 2.9254 59.0442 4.04702C60.0655 5.16863 60.8754 6.50042 61.4276 7.96617C61.9797 9.43192 62.2631 11.0028 62.2618 12.589V54.9245C62.2631 56.5107 61.9797 58.0816 61.4276 59.5473C60.8754 61.0131 60.0655 62.3449 59.0442 63.4665C58.0229 64.5881 56.8102 65.4775 55.4755 66.0838C54.1408 66.6902 52.7103 67.0015 51.2659 67H11.1633C9.71887 67.0015 8.28839 66.6902 6.9537 66.0838C5.619 65.4775 4.40628 64.5881 3.38495 63.4665C2.36361 62.3449 1.55372 61.0131 1.0016 59.5473C0.44949 58.0816 0.166002 56.5107 0.167363 54.9245V12.589C0.166002 11.0028 0.44949 9.43192 1.0016 7.96617C1.55372 6.50042 2.36361 5.16863 3.38495 4.04702C4.40628 2.9254 5.619 2.03598 6.9537 1.42966C8.28839 0.823337 9.71887 0.512014 11.1633 0.513509V0.513509Z" fill="#F0F0F0"/>
<path d="M30.8345 12.4811H12.5863V32.0192H30.8345V12.4811Z" fill="#0078D4"/>
<path d="M51.0848 12.4811H32.8365V32.0192H51.0848V12.4811Z" fill="#0078D4"/>
<path d="M30.8345 34.1645H12.5863V53.7027H30.8345V34.1645Z" fill="#0078D4"/>
<path d="M51.0849 34.1645H32.8367V53.7027H51.0849V34.1645Z" fill="#0078D4"/>
</g>
<defs>
<clipPath id="clip0_5_153">
<rect width="62.0944" height="66.4865" fill="white" transform="translate(0.167358 0.513519)"/>
</clipPath>
</defs>
</svg>
