<svg width="25" height="25" viewBox="0 0 25 25" fill="none" xmlns="http://www.w3.org/2000/svg">
<path fill-rule="evenodd" clip-rule="evenodd" d="M12.5 2.3403C6.7448 2.3403 2.08334 7.00176 2.08334 12.757C2.08334 17.3663 5.06511 21.2596 9.20574 22.6398C9.72657 22.7309 9.92188 22.4184 9.92188 22.145C9.92188 21.8976 9.90886 21.0773 9.90886 20.2049C7.29168 20.6867 6.61459 19.5669 6.40626 18.9809C6.28907 18.6814 5.78126 17.757 5.33855 17.5096C4.97397 17.3143 4.45314 16.8325 5.32553 16.8195C6.14584 16.8064 6.73178 17.5747 6.92709 17.8872C7.86459 19.4627 9.36199 19.02 9.96095 18.7466C10.0521 18.0695 10.3255 17.6137 10.625 17.3533C8.3073 17.0929 5.88543 16.1945 5.88543 12.2101C5.88543 11.0773 6.28907 10.1398 6.95313 9.41061C6.84897 9.1502 6.48438 8.08249 7.0573 6.6502C7.0573 6.6502 7.9297 6.37676 9.92188 7.71791C10.7552 7.48353 11.6406 7.36634 12.5261 7.36634C13.4115 7.36634 14.2969 7.48353 15.1302 7.71791C17.1224 6.36374 17.9948 6.6502 17.9948 6.6502C18.5677 8.08249 18.2031 9.1502 18.099 9.41061C18.763 10.1398 19.1667 11.0643 19.1667 12.2101C19.1667 16.2075 16.7318 17.0929 14.4141 17.3533C14.7917 17.6788 15.1172 18.3038 15.1172 19.2804C15.1172 20.6736 15.1042 21.7934 15.1042 22.145C15.1042 22.4184 15.2995 22.7439 15.8203 22.6398C17.8882 21.9417 19.6851 20.6127 20.9581 18.8398C22.2311 17.067 22.9161 14.9395 22.9167 12.757C22.9167 7.00176 18.2552 2.3403 12.5 2.3403Z" fill="black"/>
</svg>
