<svg width="25" height="25" viewBox="0 0 25 25" fill="none" xmlns="http://www.w3.org/2000/svg">
<path fill-rule="evenodd" clip-rule="evenodd" d="M12.5 3.125C9.95375 3.125 9.635 3.13563 8.635 3.18125C7.63687 3.22688 6.955 3.38562 6.35875 3.6175C5.73375 3.8525 5.16687 4.22125 4.69812 4.69875C4.22139 5.16696 3.85241 5.73343 3.61688 6.35875C3.38625 6.955 3.22688 7.6375 3.18125 8.63563C3.13625 9.635 3.125 9.95313 3.125 12.5C3.125 15.0469 3.13563 15.365 3.18125 16.365C3.22688 17.3631 3.38562 18.045 3.6175 18.6413C3.8525 19.2663 4.22125 19.8331 4.69875 20.3019C5.16697 20.7786 5.73344 21.1476 6.35875 21.3831C6.955 21.6144 7.63687 21.7731 8.635 21.8187C9.635 21.8644 9.95375 21.875 12.5 21.875C15.0462 21.875 15.365 21.8644 16.365 21.8187C17.3631 21.7731 18.045 21.6144 18.6413 21.3825C19.2663 21.1475 19.8331 20.7788 20.3019 20.3013C20.7786 19.833 21.1476 19.2666 21.3831 18.6413C21.6144 18.045 21.7731 17.3631 21.8187 16.365C21.8644 15.365 21.875 15.0462 21.875 12.5C21.875 9.95375 21.8644 9.635 21.8187 8.635C21.7731 7.63687 21.6144 6.955 21.3825 6.35875C21.1471 5.73317 20.7781 5.16645 20.3013 4.69812C19.833 4.22139 19.2666 3.85241 18.6413 3.61688C18.045 3.38625 17.3625 3.22688 16.3644 3.18125C15.365 3.13625 15.0469 3.125 12.5 3.125ZM12.5 4.81438C15.0031 4.81438 15.3 4.82375 16.2888 4.86875C17.2025 4.91062 17.6988 5.0625 18.0294 5.19187C18.4669 5.36125 18.7794 5.565 19.1075 5.8925C19.4356 6.22062 19.6388 6.53312 19.8081 6.97062C19.9369 7.30125 20.0894 7.7975 20.1312 8.71125C20.1762 9.7 20.1856 9.99687 20.1856 12.5C20.1856 15.0031 20.1762 15.3 20.1312 16.2888C20.0894 17.2025 19.9375 17.6988 19.8081 18.0294C19.6581 18.4366 19.4187 18.805 19.1075 19.1075C18.8051 19.4187 18.4366 19.6582 18.0294 19.8081C17.6988 19.9369 17.2025 20.0894 16.2888 20.1312C15.3 20.1762 15.0038 20.1856 12.5 20.1856C9.99625 20.1856 9.7 20.1762 8.71125 20.1312C7.7975 20.0894 7.30125 19.9375 6.97062 19.8081C6.56341 19.6581 6.195 19.4187 5.8925 19.1075C5.58136 18.805 5.34196 18.4366 5.19187 18.0294C5.06312 17.6988 4.91062 17.2025 4.86875 16.2888C4.82375 15.3 4.81438 15.0031 4.81438 12.5C4.81438 9.99687 4.82375 9.7 4.86875 8.71125C4.91062 7.7975 5.0625 7.30125 5.19187 6.97062C5.36125 6.53312 5.565 6.22062 5.8925 5.8925C6.19496 5.58128 6.56338 5.34186 6.97062 5.19187C7.30125 5.06312 7.7975 4.91062 8.71125 4.86875C9.7 4.82375 9.99687 4.81438 12.5 4.81438V4.81438Z" fill="black"/>
<path fill-rule="evenodd" clip-rule="evenodd" d="M12.5 15.6281C12.0892 15.6281 11.6824 15.5472 11.3029 15.39C10.9234 15.2328 10.5785 15.0024 10.2881 14.7119C9.9976 14.4214 9.76719 14.0766 9.60998 13.6971C9.45278 13.3176 9.37187 12.9108 9.37187 12.5C9.37187 12.0892 9.45278 11.6824 9.60998 11.3029C9.76719 10.9234 9.9976 10.5785 10.2881 10.2881C10.5785 9.9976 10.9234 9.76719 11.3029 9.60998C11.6824 9.45278 12.0892 9.37187 12.5 9.37187C13.3296 9.37187 14.1253 9.70144 14.7119 10.2881C15.2985 10.8747 15.6281 11.6704 15.6281 12.5C15.6281 13.3296 15.2985 14.1253 14.7119 14.7119C14.1253 15.2985 13.3296 15.6281 12.5 15.6281V15.6281ZM12.5 7.68124C11.222 7.68124 9.99631 8.18893 9.09262 9.09262C8.18893 9.99631 7.68124 11.222 7.68124 12.5C7.68124 13.778 8.18893 15.0037 9.09262 15.9074C9.99631 16.8111 11.222 17.3187 12.5 17.3187C13.778 17.3187 15.0037 16.8111 15.9074 15.9074C16.8111 15.0037 17.3187 13.778 17.3187 12.5C17.3187 11.222 16.8111 9.99631 15.9074 9.09262C15.0037 8.18893 13.778 7.68124 12.5 7.68124V7.68124ZM18.7206 7.59374C18.7206 7.89584 18.6006 8.18557 18.387 8.39918C18.1734 8.6128 17.8837 8.73281 17.5816 8.73281C17.2795 8.73281 16.9897 8.6128 16.7761 8.39918C16.5625 8.18557 16.4425 7.89584 16.4425 7.59374C16.4425 7.29165 16.5625 7.00192 16.7761 6.78831C16.9897 6.57469 17.2795 6.45468 17.5816 6.45468C17.8837 6.45468 18.1734 6.57469 18.387 6.78831C18.6006 7.00192 18.7206 7.29165 18.7206 7.59374" fill="black"/>
</svg>
