<svg class="border shadow-md" viewBox="0 0 1049.84 590.535" style="width: 1049.84px; height: 590.535px;" xmlns="http://www.w3.org/2000/svg" preserveAspectRatio="none"><rect class="bg" id="bg" x="0" y="0" width="1049.84" height="590.535" fill="#ffffff"/><g transform="rotate(0 524.92 295.2675)"><path d="M -624.92 -23.68 S -322.46 -50.53&#10;            0.00 -23.68 302.46 -50.53&#10;            624.92 -23.68 927.38 -50.53&#10;            1249.84 -23.68 1552.30 -50.53&#10;            1874.76 -23.68 h 110 V 790.535 H -624.92 Z" fill="#6BB39B" id="-1"/><path d="M -624.92 30.00 S -343.00 -18.00&#10;            0.00 30.00 302.46 3.16&#10;            624.92 30.00 927.38 3.16&#10;            1249.84 30.00 1552.30 -13.00&#10;            1874.76 30.00 h 110 V 790.535 H -624.92 Z" fill="#63a58f" id="0"/><path d="M -624.92 83.69 S -322.46 34.69&#10;            0.00 83.69 302.46 55.69&#10;            624.92 83.69 741.84 54.69&#10;            1249.84 83.69 1522.76 56.84&#10;            1874.76 83.69 h 110 V 790.535 H -624.92 Z" fill="#5b9783" id="1"/><path d="M -624.92 137.37 S -322.46 99.37&#10;            0.00 137.37 302.46 107.37&#10;            624.92 137.37 927.38 110.53&#10;            1249.84 137.37 1543.76 101.37&#10;            1874.76 137.37 h 110 V 790.535 H -624.92 Z" fill="#538977" id="2"/><path d="M -624.92 191.05 S -505.00 164.21&#10;            0.00 191.05 38.92 164.21&#10;            624.92 191.05 714.84 157.05&#10;            1249.84 191.05 1552.30 164.21&#10;            1874.76 191.05 h 110 V 790.535 H -624.92 Z" fill="#4b7b6b" id="3"/><path d="M -624.92 244.74 S -436.00 217.90&#10;            0.00 244.74 193.92 203.74&#10;            624.92 244.74 921.84 193.74&#10;            1249.84 244.74 1470.76 217.90&#10;            1874.76 244.74 h 110 V 790.535 H -624.92 Z" fill="#436d5f" id="4"/><path d="M -624.92 298.42 S -322.46 255.42&#10;            0.00 298.42 12.92 259.42&#10;            624.92 298.42 767.84 252.42&#10;            1249.84 298.42 1552.30 271.58&#10;            1874.76 298.42 h 110 V 790.535 H -624.92 Z" fill="#3b5f53" id="5"/><path d="M -624.92 352.11 S -322.46 302.11&#10;            0.00 352.11 97.92 325.27&#10;            624.92 352.11 651.84 317.11&#10;            1249.84 352.11 1552.30 316.11&#10;            1874.76 352.11 h 110 V 790.535 H -624.92 Z" fill="#335147" id="6"/><path d="M -624.92 405.79 S -322.46 378.95&#10;            0.00 405.79 209.92 378.95&#10;            624.92 405.79 927.38 378.95&#10;            1249.84 405.79 1552.30 367.79&#10;            1874.76 405.79 h 110 V 790.535 H -624.92 Z" fill="#2b433b" id="7"/><path d="M -624.92 459.48 S -322.46 428.48&#10;            0.00 459.48 292.92 415.48&#10;            624.92 459.48 927.38 432.64&#10;            1249.84 459.48 1552.30 423.48&#10;            1874.76 459.48 h 110 V 790.535 H -624.92 Z" fill="#23352f" id="8"/><path d="M -624.92 513.16 S -322.46 466.16&#10;            0.00 513.16 88.92 478.16&#10;            624.92 513.16 927.38 464.16&#10;            1249.84 513.16 1552.30 480.16&#10;            1874.76 513.16 h 110 V 790.535 H -624.92 Z" fill="#1b2723" id="9"/><path id="10" d="M -624.92 566.85 S -322.46 540.01&#10;            0.00 566.85 302.46 540.01&#10;            624.92 566.85 783.84 540.01&#10;            1249.84 566.85 1552.30 536.85&#10;            1874.76 566.85 h 110 V 790.535 H -624.92 Z" fill="#131917"/></g></svg>